custom-analysis
version=1
nRows=4
nColumns=98
inDegrees=no

This file contains tibia displacement and acting force.

Units are S.I. units (seconds, meters, Newtons, ...)
Angles are in degrees.

endheader
time	APT	SIT	knee_angle	aACL_R_force	pACL_R_force	aPCL_R_force	pPCL_R_force	aMCL_R_force	mMCL_R_force	pMCL_R_force	aLCL_R_force	mLCL_R_force	pLCL_R_force	aPCL_L_force	pPCL_L_force	aMCL_L_force	aLCL_L_force	aACL_R_length	pACL_R_length	aPCL_R_length	pPCL_R_length	aMCL_R_length	mMCL_R_length	pMCL_R_length	aLCL_R_length	mLCL_R_length	pLCL_R_length	aPCL_L_length	pPCL_L_length	aMCL_L_length	aLCL_L_length	aACL_R_strain	pACL_R_strain	aPCL_R_strain	pPCL_R_strain	aMCL_R_strain	mMCL_R_strain	pMCL_R_strain	aLCL_R_strain	mLCL_R_strain	pLCL_R_strain	aPCL_L_strain	pPCL_L_strain	aMCL_L_strain	aLCL_L_strain	femur_lat_meniscii_r.femur_lat_r.force.X	femur_lat_meniscii_r.femur_lat_r.force.Y	femur_lat_meniscii_r.femur_lat_r.force.Z	femur_lat_meniscii_r.femur_lat_r.torque.X	femur_lat_meniscii_r.femur_lat_r.torque.Y	femur_lat_meniscii_r.femur_lat_r.torque.Z	femur_lat_meniscii_r.meniscus_lat_r.force.X	femur_lat_meniscii_r.meniscus_lat_r.force.Y	femur_lat_meniscii_r.meniscus_lat_r.force.Z	femur_lat_meniscii_r.meniscus_lat_r.torque.X	femur_lat_meniscii_r.meniscus_lat_r.torque.Y	femur_lat_meniscii_r.meniscus_lat_r.torque.Z	femur_med_meniscii_r.femur_med_r.force.X	femur_med_meniscii_r.femur_med_r.force.Y	femur_med_meniscii_r.femur_med_r.force.Z	femur_med_meniscii_r.femur_med_r.torque.X	femur_med_meniscii_r.femur_med_r.torque.Y	femur_med_meniscii_r.femur_med_r.torque.Z	femur_med_meniscii_r.meniscus_med_r.force.X	femur_med_meniscii_r.meniscus_med_r.force.Y	femur_med_meniscii_r.meniscus_med_r.force.Z	femur_med_meniscii_r.meniscus_med_r.torque.X	femur_med_meniscii_r.meniscus_med_r.torque.Y	femur_med_meniscii_r.meniscus_med_r.torque.Z	femur_med_tibia_r.tibia_upper_r.force.X	femur_med_tibia_r.tibia_upper_r.force.Y	femur_med_tibia_r.tibia_upper_r.force.Z	femur_med_tibia_r.tibia_upper_r.torque.X	femur_med_tibia_r.tibia_upper_r.torque.Y	femur_med_tibia_r.tibia_upper_r.torque.Z	femur_med_tibia_r.femur_med_r.force.X	femur_med_tibia_r.femur_med_r.force.Y	femur_med_tibia_r.femur_med_r.force.Z	femur_med_tibia_r.femur_med_r.torque.X	femur_med_tibia_r.femur_med_r.torque.Y	femur_med_tibia_r.femur_med_r.torque.Z	femur_lat_tibia_r.tibia_upper_r.force.X	femur_lat_tibia_r.tibia_upper_r.force.Y	femur_lat_tibia_r.tibia_upper_r.force.Z	femur_lat_tibia_r.tibia_upper_r.torque.X	femur_lat_tibia_r.tibia_upper_r.torque.Y	femur_lat_tibia_r.tibia_upper_r.torque.Z	femur_lat_tibia_r.femur_lat_r.force.X	femur_lat_tibia_r.femur_lat_r.force.Y	femur_lat_tibia_r.femur_lat_r.force.Z	femur_lat_tibia_r.femur_lat_r.torque.X	femur_lat_tibia_r.femur_lat_r.torque.Y	femur_lat_tibia_r.femur_lat_r.torque.Z	femur_lat_meniscii_force_r	femur_med_meniscii_force_r	femur_lat_tibia_force_r	femur_med_tibia_force_r
      0.14917084	      0.01308674	      0.01386412	     46.44535688	      8.67716530	    -14.09469254	    136.33278874	    107.67650897	      0.00000000	      0.00000000	      0.00000000	      0.00000000	      0.00000000	      0.00000000	      0.00000000	      0.00000000	      0.00000001	      0.00000000	      0.03270000	      0.02513375	      0.03238929	      0.03056004	      0.05840756	      0.05896932	      0.05673784	      0.05242361	      0.04829675	      0.04368790	      0.01525851	      0.01651186	      0.06550154	      0.04489616	      0.05465155	      0.00299491	      0.04161378	      0.02249198	     -0.02697853	     -0.01378369	     -0.03388779	     -0.06348283	     -0.14243700	     -0.16534873	      0.00000079	     -0.32847694	      0.00000060	     -0.00000086	     40.85774978	    356.99600072	     46.01400867	    -27.24669206	      1.12935366	     14.20012070	    -40.85774978	   -356.99600072	    -46.01400867	     10.10124146	     -2.03576314	      8.05634250	     34.57951529	     54.22642004	     10.57638763	     -3.03576190	     -0.73573594	     13.72226168	    -34.57951529	    -54.22642004	    -10.57638763	     -0.94972316	      0.48704933	      0.58333410	   -138.58667872	   -583.17497518	    122.57569671	    -12.31449903	      4.93631168	      9.58267514	    138.58667872	    583.17497518	   -122.57569671	     60.44534265	     -2.91808003	     54.43716048	     -0.34623543	     -7.60034594	     -1.62251119	      0.22878344	     -0.04777553	      0.17512907	      0.34623543	      7.60034594	      1.62251119	     -0.84134287	      0.01756753	      0.09709157	    362.26066477	     65.17750749	      7.77931102	    611.82033361
      0.14952544	      0.01310317	      0.01392354	     46.61852550	      9.40171421	    -13.13405767	    141.05523185	    109.69871597	      0.00000000	      0.00000000	      0.00000000	      0.00000000	      0.00000000	      0.00000000	      0.00000000	      0.00000000	      0.00000001	      0.00000000	      0.03268808	      0.02512179	      0.03241996	      0.03057961	      0.05842062	      0.05896698	      0.05672278	      0.05242364	      0.04828604	      0.04366910	      0.01525851	      0.01651186	      0.06550154	      0.04489616	      0.05426702	      0.00251764	      0.04260002	      0.02314681	     -0.02676098	     -0.01382292	     -0.03414419	     -0.06348234	     -0.14262706	     -0.16570783	      0.00000079	     -0.32847694	      0.00000060	     -0.00000086	     41.80546808	    353.25729891	     45.54917647	    -26.96842484	      1.13990982	     14.59882010	    -41.80546808	   -353.25729891	    -45.54917647	      9.99246253	     -2.04149023	      7.97409974	     35.61015048	     53.49372156	     10.52184045	     -3.03165124	     -0.76257309	     14.14860338	    -35.61015048	    -53.49372156	    -10.52184045	     -0.93463739	      0.51289900	      0.54427591	   -145.91508956	   -581.52190848	    124.02769044	    -12.34233968	      5.09423327	      9.37766186	    145.91508956	    581.52190848	   -124.02769044	     61.02947253	     -3.05372521	     57.46860018	     -0.40762421	     -6.75253983	     -1.44283473	      0.20302070	     -0.04486858	      0.15285570	      0.40762421	      6.75253983	      1.44283473	     -0.74783842	      0.01777226	      0.12787630	    358.62674729	     65.11812489	      6.91698805	    612.24326162
      0.15032730	      0.01314296	      0.01405773	     47.01120047	      9.21984402	    -12.61748969	    152.54457408	    115.59582679	      0.00000000	      0.00000000	      0.00000000	      0.00000000	      0.00000000	      0.00000000	      0.00000000	      0.00000000	      0.00000001	      0.00000000	      0.03266288	      0.02509643	      0.03248876	      0.03062311	      0.05845101	      0.05896231	      0.05668944	      0.05242423	      0.04826242	      0.04362728	      0.01525851	      0.01651186	      0.06550154	      0.04489616	      0.05345438	      0.00150580	      0.04481257	      0.02460246	     -0.02625469	     -0.01390103	     -0.03471187	     -0.06347177	     -0.14304648	     -0.16650682	      0.00000079	     -0.32847694	      0.00000060	     -0.00000086	     41.37364846	    349.50412916	     44.86491363	    -26.59655652	      1.11279480	     14.39129273	    -41.37364846	   -349.50412916	    -44.86491363	      9.87038468	     -2.00602672	      7.99169915	     37.15614016	     53.24175057	     10.30063596	     -2.95006385	     -0.80128363	     14.77563164	    -37.15614016	    -53.24175057	    -10.30063596	     -0.93285546	      0.55244754	      0.51689633	   -157.57131508	   -584.34149612	    124.81369176	    -12.41854456	      5.32434322	      9.24638288	    157.57131508	    584.34149612	   -124.81369176	     61.41339867	     -3.27078403	     62.22144507	     -0.32093542	     -4.95629341	     -1.06855603	      0.14923756	     -0.03391276	      0.11264279	      0.32093542	      4.95629341	      1.06855603	     -0.55293638	      0.01368976	      0.10240664	    354.79258104	     65.73709650	      5.08032045	    617.94996648
      0.15112916	      0.01318291	      0.01419268	     47.40468161	      8.08233088	    -12.93256600	    164.36440485	    121.43323090	      0.00000000	      0.00000000	      0.00000000	      0.00000000	      0.00000000	      0.00000000	      0.00000000	      0.00000000	      0.00000001	      0.00000000	      0.03263743	      0.02507111	      0.03255712	      0.03066603	      0.05848122	      0.05895737	      0.05665601	      0.05242427	      0.04823830	      0.04358522	      0.01525851	      0.01651186	      0.06550154	      0.04489616	      0.05263347	      0.00049513	      0.04701089	      0.02603823	     -0.02575141	     -0.01398360	     -0.03528110	     -0.06347102	     -0.14347480	     -0.16731052	      0.00000079	     -0.32847694	      0.00000060	     -0.00000086	     42.69298066	    349.29135025	     43.51265300	    -26.03393998	      1.12874340	     14.89687051	    -42.69298066	   -349.29135025	    -43.51265300	      9.82095319	     -2.00388143	      8.03574351	     38.89223816	     53.94737380	      9.98118458	     -2.80478908	     -0.84502750	     15.46901773	    -38.89223816	    -53.94737380	     -9.98118458	     -0.95532978	      0.59860321	      0.51439386	   -166.79069496	   -593.02573681	    126.17543253	    -12.60698184	      5.54394184	      9.34980647	    166.79069496	    593.02573681	   -126.17543253	     62.14137632	     -3.46243834	     65.91255669	     -0.21614291	     -3.59486805	     -0.76407707	      0.10800910	     -0.02415912	      0.08324066	      0.21614291	      3.59486805	      0.76407707	     -0.39669244	      0.00962936	      0.06678274	    354.57085177	     67.24990241	      3.68152249	    628.82342532
